<svg width="19" height="24" viewBox="0 0 19 24" fill="none" id="svg1398984667_945" xmlns="http://www.w3.org/2000/svg">
<path d="M15.8035 12.9518C15.777 9.97052 18.2092 8.5201 18.3204 8.45258C16.943 6.41485 14.808 6.13641 14.0578 6.11425C12.2647 5.92277 10.5254 7.20294 9.6119 7.20294C8.6803 7.20294 7.27366 6.13275 5.75773 6.16412C3.80692 6.19473 1.98186 7.34079 0.980957 9.12046C-1.08469 12.7493 0.455851 18.0819 2.43497 21.015C3.42496 22.4515 4.58177 24.0555 6.09593 23.9991C7.57725 23.9371 8.13058 23.0408 9.91826 23.0408C11.6895 23.0408 12.209 23.9991 13.7533 23.963C15.3431 23.9371 16.344 22.52 17.2994 21.0705C18.4435 19.424 18.9029 17.8025 18.9212 17.7193C18.8838 17.7063 15.8335 16.5251 15.8035 12.9518Z" fill="black"></path>
<path d="M12.8843 4.18465C13.6811 3.17364 14.2262 1.79816 14.0749 0.402344C12.9217 0.454144 11.4796 1.21171 10.6492 2.20054C9.9144 3.07189 9.25808 4.50009 9.4276 5.84317C10.723 5.94121 12.053 5.17998 12.8843 4.18465Z" fill="black"></path>
</svg>